<svg width="127" height="32" viewBox="0 0 127 32" fill="none" xmlns="http://www.w3.org/2000/svg">
<path d="M17.9545 25.08H13.9145L0.594531 2.2H10.5145L16.1145 14.24L21.7145 2.2H29.5145L17.9545 25.08ZM21.4745 22.36L29.0745 7.24V31H21.4745V22.36ZM3.19453 10.36L10.7945 23.8V31H3.19453V10.36ZM42.1761 31.36V25.48C43.1361 24.84 43.6161 22.8667 43.6161 19.56C43.6161 16.1733 43.1361 14.1867 42.1761 13.6V7.72C45.3761 7.85333 47.6561 8.85333 49.0161 10.72C50.3761 12.56 51.0561 15.4933 51.0561 19.52C51.0561 23.5467 50.3761 26.4933 49.0161 28.36C47.6561 30.2 45.3761 31.2 42.1761 31.36ZM40.1761 25.52V31.36C36.9761 31.2 34.6961 30.2 33.3361 28.36C31.9761 26.4933 31.2961 23.5467 31.2961 19.52C31.2961 15.4933 31.9761 12.56 33.3361 10.72C34.6961 8.88 36.9761 7.88 40.1761 7.72V13.56C39.6694 13.88 39.2961 14.52 39.0561 15.48C38.8428 16.44 38.7361 17.8 38.7361 19.56C38.7361 22.9467 39.2161 24.9333 40.1761 25.52ZM63.5527 31H57.0327L51.6727 8H59.0727L63.5527 31ZM62.4727 16.2L63.7127 8H70.9127L65.4727 31L62.4727 16.2ZM72.7211 8H79.9211V31H72.7211V8ZM72.5211 0.799998H80.1211V6.24H72.5211V0.799998ZM92.8717 31.4C91.2984 31.4 89.8584 31.2267 88.5517 30.88C87.2717 30.5333 86.1651 29.92 85.2317 29.04C84.2984 28.16 83.5784 26.9467 83.0717 25.4C82.5651 23.8533 82.3117 21.88 82.3117 19.48C82.3117 15.7467 82.9784 12.8933 84.3117 10.92C85.6451 8.92 87.7917 7.84 90.7517 7.68V13.56C90.1651 14.4667 89.8717 16.4 89.8717 19.36C89.8717 21.0933 90.0051 22.4267 90.2717 23.36C90.5384 24.2933 91.0451 24.9333 91.7917 25.28C92.5651 25.6267 93.6584 25.8 95.0717 25.8C95.6851 25.8 96.3117 25.7467 96.9517 25.64C97.6184 25.5333 98.2584 25.4133 98.8717 25.28V30.72C97.9384 30.9067 96.9517 31.0667 95.9117 31.2C94.8984 31.3333 93.8851 31.4 92.8717 31.4ZM91.8717 21.72V17.28H93.1917C93.1917 16.6667 93.1651 16.0133 93.1117 15.32C93.0851 14.6267 92.9517 14.0533 92.7117 13.6V7.72C95.2451 7.93333 97.0717 8.85333 98.1917 10.48C99.3117 12.08 99.8717 14.3467 99.8717 17.28C99.8717 18.0267 99.8451 18.8 99.7917 19.6C99.7384 20.3733 99.6451 21.08 99.5117 21.72H91.8717ZM102.257 2.2H110.057V31H102.257V2.2ZM112.263 13.4V8H115.263V2.96H122.463V8H126.823V13.4H112.263ZM115.263 15.04H122.463V23.36C122.463 24.1067 122.65 24.6533 123.023 25C123.423 25.3467 124.05 25.52 124.903 25.52C125.33 25.52 125.703 25.5067 126.023 25.48C126.343 25.4267 126.61 25.3733 126.823 25.32V30.64C126.183 30.8533 125.503 31.0267 124.783 31.16C124.09 31.32 123.383 31.4 122.663 31.4C120.21 31.4 118.357 30.88 117.103 29.84C115.877 28.7733 115.263 26.88 115.263 24.16V15.04Z" fill="black"/>
</svg>
