<svg width="190" height="47" viewBox="0 0 190 47" fill="none" xmlns="http://www.w3.org/2000/svg">
<path d="M26.1818 37.12H20.1218L0.141797 2.8H15.0218L23.4218 20.86L31.8218 2.8H43.5218L26.1818 37.12ZM31.4618 33.04L42.8618 10.36V46H31.4618V33.04ZM4.0418 15.04L15.4418 35.2V46H4.0418V15.04ZM62.5141 46.54V37.72C63.9541 36.76 64.6741 33.8 64.6741 28.84C64.6741 23.76 63.9541 20.78 62.5141 19.9V11.08C67.3141 11.28 70.7341 12.78 72.7741 15.58C74.8141 18.34 75.8341 22.74 75.8341 28.78C75.8341 34.82 74.8141 39.24 72.7741 42.04C70.7341 44.8 67.3141 46.3 62.5141 46.54ZM59.5141 37.78V46.54C54.7141 46.3 51.2941 44.8 49.2541 42.04C47.2141 39.24 46.1941 34.82 46.1941 28.78C46.1941 22.74 47.2141 18.34 49.2541 15.58C51.2941 12.82 54.7141 11.32 59.5141 11.08V19.84C58.7541 20.32 58.1941 21.28 57.8341 22.72C57.5141 24.16 57.3541 26.2 57.3541 28.84C57.3541 33.92 58.0741 36.9 59.5141 37.78ZM94.579 46H84.799L76.759 11.5H87.859L94.579 46ZM92.959 23.8L94.819 11.5H105.619L97.459 46L92.959 23.8ZM108.332 11.5H119.132V46H108.332V11.5ZM108.032 0.699997H119.432V8.86H108.032V0.699997ZM138.558 46.6C136.198 46.6 134.038 46.34 132.078 45.82C130.158 45.3 128.498 44.38 127.098 43.06C125.698 41.74 124.618 39.92 123.858 37.6C123.098 35.28 122.718 32.32 122.718 28.72C122.718 23.12 123.718 18.84 125.718 15.88C127.718 12.88 130.938 11.26 135.378 11.02V19.84C134.498 21.2 134.058 24.1 134.058 28.54C134.058 31.14 134.258 33.14 134.658 34.54C135.058 35.94 135.818 36.9 136.938 37.42C138.098 37.94 139.738 38.2 141.858 38.2C142.778 38.2 143.718 38.12 144.678 37.96C145.678 37.8 146.638 37.62 147.558 37.42V45.58C146.158 45.86 144.678 46.1 143.118 46.3C141.598 46.5 140.078 46.6 138.558 46.6ZM137.058 32.08V25.42H139.038C139.038 24.5 138.998 23.52 138.918 22.48C138.878 21.44 138.678 20.58 138.318 19.9V11.08C142.118 11.4 144.858 12.78 146.538 15.22C148.218 17.62 149.058 21.02 149.058 25.42C149.058 26.54 149.018 27.7 148.938 28.9C148.858 30.06 148.718 31.12 148.518 32.08H137.058ZM152.636 2.8H164.336V46H152.636V2.8ZM167.645 19.6V11.5H172.145V3.94H182.945V11.5H189.485V19.6H167.645ZM172.145 22.06H182.945V34.54C182.945 35.66 183.225 36.48 183.785 37C184.385 37.52 185.325 37.78 186.605 37.78C187.245 37.78 187.805 37.76 188.285 37.72C188.765 37.64 189.165 37.56 189.485 37.48V45.46C188.525 45.78 187.505 46.04 186.425 46.24C185.385 46.48 184.325 46.6 183.245 46.6C179.565 46.6 176.785 45.82 174.905 44.26C173.065 42.66 172.145 39.82 172.145 35.74V22.06Z" fill="white"/>
</svg>
